<?xml version="1.0" ?><svg viewBox="0 0 32 32" xmlns="http://www.w3.org/2000/svg"><defs><style>.cls-1{fill:#ff9800;}.cls-2{fill:#4a148c;}.cls-3{fill:#f5f5f5;}.cls-4{fill:#9c27b0;}</style></defs><title/><g id="new"><path class="cls-1" d="M25,8.29v18A1.75,1.75,0,0,1,23.22,28H10.78A1.75,1.75,0,0,1,9,26.29V5.85A1.93,1.93,0,0,1,11,4H22Z"/><rect class="cls-2" height="6" width="18" x="7" y="13"/><path class="cls-3" d="M12.21,14.74l1.12,1.69v-1.7a.36.36,0,0,1,.07-.25.23.23,0,0,1,.19-.09.24.24,0,0,1,.2.09.36.36,0,0,1,.07.25V17c0,.25-.1.37-.31.37a.32.32,0,0,1-.14,0,.37.37,0,0,1-.12-.07l-.1-.11L13.1,17,12,15.35V17a.37.37,0,0,1-.08.25.22.22,0,0,1-.19.08.24.24,0,0,1-.2-.08.37.37,0,0,1-.07-.25V14.81a.69.69,0,0,1,0-.22.27.27,0,0,1,.12-.14.33.33,0,0,1,.19-.06.28.28,0,0,1,.13,0l.1.07a.52.52,0,0,1,.08.11Z"/><path class="cls-3" d="M16.38,14.89h-1.3v.7h1.2a.28.28,0,0,1,.2.06.23.23,0,0,1,.06.16.21.21,0,0,1-.06.16.28.28,0,0,1-.2.06h-1.2v.82h1.35a.33.33,0,0,1,.21.06.24.24,0,0,1,.07.17.22.22,0,0,1-.07.16.28.28,0,0,1-.21.07H14.85a.37.37,0,0,1-.27-.09A.38.38,0,0,1,14.5,17V14.8a.44.44,0,0,1,0-.21.2.2,0,0,1,.11-.11.54.54,0,0,1,.2,0h1.53a.29.29,0,0,1,.21.06.22.22,0,0,1,.07.17.2.2,0,0,1-.07.16A.29.29,0,0,1,16.38,14.89Z"/><path class="cls-3" d="M19.19,16.85l-.46-1.71-.47,1.71a1.25,1.25,0,0,1-.09.29.36.36,0,0,1-.11.15.33.33,0,0,1-.21.06.34.34,0,0,1-.18,0,.29.29,0,0,1-.11-.11.87.87,0,0,1-.07-.17c0-.07,0-.13,0-.19L17,14.91a1.76,1.76,0,0,1,0-.25.26.26,0,0,1,.08-.19.27.27,0,0,1,.19-.08.23.23,0,0,1,.22.11,1.44,1.44,0,0,1,.09.29l.38,1.67.42-1.56c0-.12.06-.21.08-.28a.61.61,0,0,1,.12-.16.39.39,0,0,1,.23-.07.34.34,0,0,1,.23.08.33.33,0,0,1,.11.15,2.85,2.85,0,0,1,.08.28l.43,1.56L20,14.79c0-.09,0-.16.05-.2a.42.42,0,0,1,.09-.14.24.24,0,0,1,.17-.06.26.26,0,0,1,.19.08.22.22,0,0,1,.08.19,1,1,0,0,1,0,.25L20,16.84c0,.13-.06.23-.08.29a.42.42,0,0,1-.11.16.33.33,0,0,1-.21.06.38.38,0,0,1-.22-.06.48.48,0,0,1-.11-.15C19.26,17.08,19.23,17,19.19,16.85Z"/><path class="cls-3" d="M9,24H9a1,1,0,0,1,1,1v3a0,0,0,0,1,0,0H8a0,0,0,0,1,0,0V25A1,1,0,0,1,9,24Z" transform="translate(35 17) rotate(90)"/><path class="cls-3" d="M9,20H9a1,1,0,0,1,1,1v3a0,0,0,0,1,0,0H8a0,0,0,0,1,0,0V21A1,1,0,0,1,9,20Z" transform="translate(31 13) rotate(90)"/><path class="cls-3" d="M9,8H9a1,1,0,0,1,1,1v3a0,0,0,0,1,0,0H8a0,0,0,0,1,0,0V9A1,1,0,0,1,9,8Z" transform="translate(19 1) rotate(90)"/><path class="cls-3" d="M9,4H9a1,1,0,0,1,1,1V8a0,0,0,0,1,0,0H8A0,0,0,0,1,8,8V5A1,1,0,0,1,9,4Z" transform="translate(15 -3) rotate(90)"/><path class="cls-4" d="M23,31H9a3,3,0,0,1-3-3V4A3,3,0,0,1,7.5,1.41,2.92,2.92,0,0,1,9,1H20a1,1,0,0,1,.71.29l5,5A1,1,0,0,1,26,7V23a1,1,0,0,1-2,0V7.41L19.59,3H9a1,1,0,0,0-.49.13A1,1,0,0,0,8,4V28a1,1,0,0,0,.5.87A1.09,1.09,0,0,0,9,29H23a1,1,0,0,0,1-1V27a1,1,0,0,1,2,0v1A3,3,0,0,1,23,31Z"/><path class="cls-4" d="M25,8H22a3,3,0,0,1-3-3V2a1,1,0,0,1,.62-.92,1,1,0,0,1,1.09.21l5,5a1,1,0,0,1,.21,1.09A1,1,0,0,1,25,8ZM21,4.41V5a1,1,0,0,0,1,1h.59Z"/></g></svg>